<svg viewBox="0 0 1000 1000" xmlns="http://www.w3.org/2000/svg">

    <!-- Dark board piece coordinates -->
    <defs>
        <g id="darkBoardPiece">
            <!-- boxes's polygons -->
                                        <!--     T        BR       B        BL-->
            <polygon fill="#4d2209" points="500 500, 500 595, 426 630, 417 547"/>
            <polygon fill="#8B4513" points="417 547, 426 630, 365 654, 349 587"/>
            <polygon fill="#8B4513" points="500 595, 500 675, 435 700, 426 630"/>
            <polygon fill="#4d2209" points="349 587, 365 654, 302 681, 275 630"/>
            <polygon fill="#4d2209" points="426 630, 435 700, 377 717, 365 654"/>
            <polygon fill="#4d2209" points="500 675, 500 760, 441 767, 435 700"/>
            <polygon fill="#8B4513" points="275 630, 302 681, 239 709, 213 664"/>
            <polygon fill="#8B4513" points="365 654, 377 717, 323 735, 302 681"/>
            <polygon fill="#8B4513" points="435 700, 441 767, 388 775, 377 717"/>
            <polygon fill="#8B4513" points="500 760, 500 830, 446 830, 441 767"/>
            <polygon fill="#4d2209" points="302 681, 323 735, 266 755, 239 709"/>
            <polygon fill="#4d2209" points="377 717, 388 775, 339 782, 323 735"/>
            <polygon fill="#4d2209" points="441 767, 446 830, 396 830, 388 775"/>
            <polygon fill="#8B4513" points="323 735, 339 782, 287 792, 266 755"/>
            <polygon fill="#8B4513" points="388 775, 396 830, 350 830, 339 782"/>
            <polygon fill="#4d2209" points="339 782, 350 830, 309 830, 287 792"/>

            <!-- numerations -->                                        <!--     T        BR       B        BL-->
            <polygon fill="#4d2209" stroke="Black" stroke-width="3" points="213 664, 239 709, 202 726, 179 684"/>
            <text x="200" y="705" fill="#D2B48C" font-size="35">4</text>
            <polygon fill="#8B4513" stroke="Black" stroke-width="3" points="239 709, 266 755, 227 770, 202 726"/>
            <text x="225" y="750" fill="#D2B48C" font-size="35">3</text>
            <polygon fill="#4d2209" stroke="Black" stroke-width="3" points="266 755, 287 792, 246 805, 227 770"/>
            <text x="248" y="792" fill="#D2B48C" font-size="35">2</text>
            <polygon fill="#8B4513" stroke="Black" stroke-width="3" points="287 792, 309 830, 260 830, 246 805"/>
            <text x="268" y="825" fill="#D2B48C" font-size="35">1</text>
            <polygon fill="#4d2209" stroke="Black" stroke-width="3" points="309 830, 330 870, 285 870, 260 830"/>
            <polygon fill="#8B4513" stroke="Black" stroke-width="3" points="350 830, 360 870, 330 870, 309 830"/>
            <text x="327" y="861" fill="#D2B48C" font-size="35">A</text>
            <polygon fill="#4d2209" stroke="Black" stroke-width="3" points="396 830, 400 870, 360 870, 350 830"/>
            <text x="367" y="861" fill="#D2B48C" font-size="35">B</text>
            <polygon fill="#8B4513" stroke="Black" stroke-width="3" points="446 830, 449 870, 400 870, 396 830"/>
            <text x="410" y="861" fill="#D2B48C" font-size="35">C</text>
            <polygon fill="#4d2209" stroke="Black" stroke-width="3" points="500 830, 500 870, 449 870, 446 830"/>
            <text x="464" y="861" fill="#D2B48C" font-size="35">D</text>

        </g>
    </defs>

    <!-- Light board piece coordinates -->
    <defs>
        <g id="lightBoardPiece">
            <!-- boxes's polygons -->
                                        <!--     T        BR       B        BL-->
            <polygon fill="#8B4513" points="500 500, 500 595, 426 630, 417 547"/>
            <polygon fill="#4d2209" points="417 547, 426 630, 365 654, 349 587"/>
            <polygon fill="#4d2209" points="500 595, 500 675, 435 700, 426 630"/>
            <polygon fill="#8B4513" points="349 587, 365 654, 302 681, 275 630"/>
            <polygon fill="#8B4513" points="426 630, 435 700, 377 717, 365 654"/>
            <polygon fill="#8B4513" points="500 675, 500 760, 441 767, 435 700"/>
            <polygon fill="#4d2209" points="275 630, 302 681, 239 709, 213 664"/>
            <polygon fill="#4d2209" points="365 654, 377 717, 323 735, 302 681"/>
            <polygon fill="#4d2209" points="435 700, 441 767, 388 775, 377 717"/>
            <polygon fill="#4d2209" points="500 760, 500 830, 446 830, 441 767"/>
            <polygon fill="#8B4513" points="302 681, 323 735, 266 755, 239 709"/>
            <polygon fill="#8B4513" points="377 717, 388 775, 339 782, 323 735"/>
            <polygon fill="#8B4513" points="441 767, 446 830, 396 830, 388 775"/>
            <polygon fill="#4d2209" points="323 735, 339 782, 287 792, 266 755"/>
            <polygon fill="#4d2209" points="388 775, 396 830, 350 830, 339 782"/>
            <polygon fill="#8B4513" points="339 782, 350 830, 309 830, 287 792"/>

            <!-- numerations -->                                        <!--     T        BR       B        BL-->
            <polygon fill="#8B4513" stroke="Black" stroke-width="3" points="213 664, 239 709, 202 726, 179 684"/>
            <text x="178" y="700" fill="#D2B48C" font-size="35" transform="rotate(60, 192, 710)">E</text>
            <polygon fill="#4d2209" stroke="Black" stroke-width="3" points="239 709, 266 755, 227 770, 202 726"/>
            <text x="210" y="744" fill="#D2B48C" font-size="35" transform="rotate(60, 220, 752)">F</text>
            <polygon fill="#8B4513" stroke="Black" stroke-width="3" points="266 755, 287 792, 246 805, 227 770"/>
            <text x="226" y="782" fill="#D2B48C" font-size="35" transform="rotate(60, 242, 792)">G</text>
            <polygon fill="#4d2209" stroke="Black" stroke-width="3" points="287 792, 309 830, 260 830, 246 805"/>
            <text x="245" y="815" fill="#D2B48C" font-size="35" transform="rotate(60, 260, 825)">H</text>
            <polygon fill="#8B4513" stroke="Black" stroke-width="3" points="309 830, 330 870, 285 870, 260 830"/>
            <polygon fill="#4d2209" stroke="Black" stroke-width="3" points="350 830, 360 870, 330 870, 309 830"/>
            <text x="314" y="858" fill="#D2B48C" font-size="35" transform="rotate(60, 327, 861)">1</text>
            <polygon fill="#8B4513" stroke="Black" stroke-width="3" points="396 830, 400 870, 360 870, 350 830"/>
            <text x="354" y="858" fill="#D2B48C" font-size="35" transform="rotate(60, 367, 861)">2</text>
            <polygon fill="#4d2209" stroke="Black" stroke-width="3" points="446 830, 449 870, 400 870, 396 830"/>
            <text x="398" y="858" fill="#D2B48C" font-size="35" transform="rotate(60, 410, 861)">3</text>
            <polygon fill="#8B4513" stroke="Black" stroke-width="3" points="500 830, 500 870, 449 870, 446 830"/>
            <text x="450" y="861" fill="#D2B48C" font-size="35" transform="rotate(60, 464, 861)">4</text>
        </g>
    </defs>
    <use href="#darkBoardPiece"/>
    <use href="#lightBoardPiece" transform="rotate(60,500,500)"/>
    <use href="#darkBoardPiece" transform="rotate(120,500,500)"/>
    <use href="#lightBoardPiece" transform="rotate(180,500,500)"/>
    <use href="#darkBoardPiece" transform="rotate(240,500,500)"/>
    <use href="#lightBoardPiece" transform="rotate(300,500,500)"/>
</svg>