<svg viewBox="0 0 1000 1000" xmlns="http://www.w3.org/2000/svg">
    <!-- Blueprint for board size once the numerations are included -->
    <defs>
        <g id="lenta">
            <polygon fill="#D2B48C" points="725 110, 950 500, 725 890, 275 890, 50 500, 275 110"/>
        </g>
    </defs>

    <!-- Dark board piece coordinates -->
    <defs>
        <g id="darkBoardPiece">
            <!-- boxes's polygons -->
                                        <!--     T        BR       B        BL-->
            <polygon fill="#4d2209" points="500 500, 500 595, 430 630, 417 547"/>
            <polygon fill="#8B4513" points="417 547, 430 630, 365 654, 349 587"/>
            <polygon fill="#8B4513" points="500 595, 500 675, 435 700, 430 630"/>
            <polygon fill="#4d2209" points="349 587, 365 654, 302 681, 275 630"/>
            <polygon fill="#4d2209" points="430 630, 435 700, 377 715, 365 654"/>
            <polygon fill="#4d2209" points="500 675, 500 760, 441 767, 435 700"/>
            <polygon fill="#8B4513" points="275 630, 302 681, 239 709, 213 664"/>
            <polygon fill="#8B4513" points="365 654, 377 715, 323 735, 302 681"/>
            <polygon fill="#8B4513" points="435 700, 441 767, 388 775, 377 715"/>
            <polygon fill="#8B4513" points="500 760, 500 830, 446 830, 441 767"/>
            <polygon fill="#4d2209" points="302 681, 323 735, 266 755, 239 709"/>
            <polygon fill="#4d2209" points="377 715, 388 775, 339 782, 323 735"/>
            <polygon fill="#4d2209" points="441 767, 446 830, 396 830, 388 775"/>
            <polygon fill="#8B4513" points="323 735, 339 782, 289 794, 266 755"/>
            <polygon fill="#8B4513" points="388 775, 396 830, 350 830, 339 782"/>
            <polygon fill="#4d2209" points="339 782, 350 830, 309 830, 289 794"/>
        </g>
    </defs>

    <!-- Light board piece coordinates -->
    <defs>
        <g id="lightBoardPiece">
            <!-- boxes's polygons -->
                                        <!--     T        BR       B        BL-->
            <polygon fill="#8B4513" points="500 500, 500 595, 430 630, 417 547"/>
            <polygon fill="#4d2209" points="417 547, 430 630, 365 654, 349 587"/>
            <polygon fill="#4d2209" points="500 595, 500 675, 435 700, 430 630"/>
            <polygon fill="#8B4513" points="349 587, 365 654, 302 681, 275 630"/>
            <polygon fill="#8B4513" points="430 630, 435 700, 377 715, 365 654"/>
            <polygon fill="#8B4513" points="500 675, 500 760, 441 767, 435 700"/>
            <polygon fill="#4d2209" points="275 630, 302 681, 239 709, 213 664"/>
            <polygon fill="#4d2209" points="365 654, 377 715, 323 735, 302 681"/>
            <polygon fill="#4d2209" points="435 700, 441 767, 388 775, 377 715"/>
            <polygon fill="#4d2209" points="500 760, 500 830, 446 830, 441 767"/>
            <polygon fill="#8B4513" points="302 681, 323 735, 266 755, 239 709"/>
            <polygon fill="#8B4513" points="377 715, 388 775, 339 782, 323 735"/>
            <polygon fill="#8B4513" points="441 767, 446 830, 396 830, 388 775"/>
            <polygon fill="#4d2209" points="323 735, 339 782, 289 794, 266 755"/>
            <polygon fill="#4d2209" points="388 775, 396 830, 350 830, 339 782"/>
            <polygon fill="#8B4513" points="339 782, 350 830, 309 830, 289 794"/>
        </g>
    </defs>
    
    <use href="#darkBoardPiece"/>
    <use href="#lightBoardPiece" transform="rotate(60,500,500)"/>
    <use href="#darkBoardPiece" transform="rotate(120,500,500)"/>
    <use href="#lightBoardPiece" transform="rotate(180,500,500)"/>
    <use href="#darkBoardPiece" transform="rotate(240,500,500)"/>
    <use href="#lightBoardPiece" transform="rotate(300,500,500)"/>
</svg>